<svg width="350" height="350" viewBox="0 0 350 350" fill="none" xmlns="http://www.w3.org/2000/svg">
<path d="M175 328C175 328 294 268.4 294 179V74.7L175 30L56 74.7V179C56 268.4 175 328 175 328Z" fill="#242E42" stroke="#19202F" stroke-width="20" stroke-linecap="round" stroke-linejoin="round"/>
<path d="M175 309C175 309 279 257 279 179V88L175 49L71 88V179C71 257 175 309 175 309Z" fill="#242E42"/>
<path d="M136 285.5L220 65.5L276 85.5C278.167 103 281.2 150.3 276 199.5C270.8 248.7 208.5 292 178 307.5L136 285.5Z" fill="url(#paint0_linear_1499_323)"/>
<path d="M175 309C175 309 279 257 279 179V88L175 49L71 88V179C71 257 175 309 175 309Z" stroke="white" stroke-width="20" stroke-linecap="round" stroke-linejoin="round"/>
<path d="M117.612 105.145C118.006 103.1 120.013 101.442 122.096 101.442H137.179C139.261 101.442 140.631 103.1 140.237 105.145L130.264 156.986C129.87 159.031 127.863 160.689 125.78 160.689H110.697C108.615 160.689 107.245 159.031 107.639 156.986L117.612 105.145Z" fill="white"/>
<path d="M155.32 105.145C155.714 103.1 157.721 101.442 159.804 101.442H174.887C176.969 101.442 178.339 103.1 177.945 105.145L150.874 245.856C150.481 247.902 148.473 249.559 146.391 249.559H131.307C129.225 249.559 127.856 247.902 128.249 245.856L155.32 105.145Z" fill="white"/>
<path d="M193.028 105.145C193.422 103.1 195.429 101.442 197.511 101.442H212.595C214.677 101.442 216.047 103.1 215.653 105.145L188.582 245.856C188.188 247.902 186.182 249.559 184.099 249.559H169.015C166.933 249.559 165.563 247.902 165.957 245.856L193.028 105.145Z" fill="white"/>
<path d="M230.737 105.145C231.131 103.1 233.138 101.442 235.22 101.442H250.304C252.386 101.442 253.756 103.1 253.362 105.145L243.389 156.986C242.995 159.031 240.988 160.689 238.905 160.689H223.822C221.74 160.689 220.37 159.031 220.764 156.986L230.737 105.145Z" fill="white"/>
<defs>
<linearGradient id="paint0_linear_1499_323" x1="169" y1="162" x2="340" y2="229.5" gradientUnits="userSpaceOnUse">
<stop offset="0.0156795" stop-color="#242E42"/>
<stop offset="1" stop-color="#10141E"/>
</linearGradient>
</defs>
</svg>
